<svg width="27" height="26" viewBox="0 0 27 26" fill="none" xmlns="http://www.w3.org/2000/svg">
<path d="M23.0124 3.83982L25.8407 4.3842C25.9926 4.41345 26.1174 4.5207 26.1613 4.66532C26.1835 4.73558 26.1854 4.8103 26.167 4.88155C26.1486 4.9528 26.1105 5.0179 26.0567 5.06995L23.7397 7.3027C23.4621 7.56854 23.0867 7.71806 22.6952 7.7187H20.7731L15.9469 12.3678C16.039 12.7026 16.0559 13.0524 15.9965 13.394C15.9372 13.7356 15.803 14.0611 15.6027 14.3488C15.4025 14.6365 15.141 14.8798 14.8354 15.0625C14.5299 15.2452 14.1875 15.3632 13.8309 15.4084C13.4743 15.4537 13.1119 15.4253 12.7676 15.3251C12.4233 15.2249 12.1052 15.0552 11.8344 14.8273C11.5636 14.5994 11.3463 14.3186 11.197 14.0035C11.0478 13.6884 10.9699 13.3463 10.9688 12.9999C10.9687 12.6259 11.058 12.2569 11.2298 11.9214C11.4015 11.5859 11.6512 11.293 11.9594 11.0654C12.2676 10.8377 12.6261 10.6814 13.007 10.6086C13.388 10.5358 13.7813 10.5483 14.1564 10.6453L18.9844 5.99457V4.14695C18.9844 3.76995 19.1396 3.40757 19.4164 3.14107L21.735 0.908324C21.789 0.856534 21.8567 0.819816 21.9306 0.802076C22.0046 0.784335 22.0822 0.786236 22.1552 0.807574C22.3054 0.849824 22.4168 0.970074 22.4471 1.11632L23.0124 3.83982Z" fill="#213F95"/>
<path d="M3.37541 13C3.37714 14.3942 3.68936 15.7718 4.29099 17.04C4.89263 18.3081 5.76969 19.4372 6.86301 20.3511C7.95633 21.2651 9.24049 21.9426 10.6289 22.338C12.0172 22.7334 13.4775 22.8375 14.9112 22.6433C16.3449 22.449 17.7186 21.9609 18.9398 21.2119C20.1609 20.4629 21.201 19.4705 21.99 18.3015C22.779 17.1325 23.2984 15.8141 23.5133 14.4354C23.7281 13.0566 23.6335 11.6496 23.2356 10.309C23.1797 10.1524 23.1576 9.98651 23.1704 9.82138C23.1833 9.65625 23.2309 9.49537 23.3104 9.34853C23.3899 9.20168 23.4996 9.07196 23.6328 8.96724C23.766 8.86252 23.9199 8.78501 24.0852 8.73941C24.2506 8.69382 24.4238 8.6811 24.5944 8.70203C24.7649 8.72296 24.9293 8.7771 25.0775 8.86116C25.2256 8.94521 25.3545 9.05743 25.4562 9.19097C25.5579 9.3245 25.6303 9.47657 25.669 9.63792C26.4394 12.2339 26.293 15.0027 25.2529 17.51C24.2128 20.0172 22.3378 22.121 19.922 23.4914C17.5063 24.8617 14.6865 25.421 11.905 25.0816C9.12347 24.7421 6.53768 23.5231 4.55329 21.6158C2.57105 19.7054 1.30379 17.2151 0.950479 14.536C0.597165 11.8569 1.1778 9.14069 2.60122 6.81378C4.02465 4.48688 6.21025 2.68107 8.81489 1.67987C11.4195 0.678671 14.2957 0.538783 16.9918 1.28217C17.3129 1.37254 17.5837 1.5816 17.7452 1.86368C17.9066 2.14575 17.9455 2.4779 17.8534 2.78753C17.7614 3.09716 17.5457 3.3591 17.2537 3.5161C16.9617 3.67311 16.6169 3.71241 16.2949 3.62542C14.7872 3.20852 13.1996 3.13465 11.6572 3.40962C10.1149 3.68459 8.65992 4.30089 7.40717 5.2099C6.15443 6.11892 5.13814 7.29579 4.43847 8.64769C3.73879 9.99959 3.37487 11.4895 3.37541 13Z" fill="#213F95"/>
<path d="M8.43733 13.0001C8.43743 13.8883 8.68936 14.7596 9.16593 15.5201C9.64251 16.2805 10.3257 16.9013 11.1417 17.3153C11.9577 17.7294 12.8756 17.921 13.7964 17.8696C14.7173 17.8182 15.606 17.5257 16.3669 17.0236C17.1276 16.5202 17.7309 15.8262 18.1117 15.0165C18.4924 14.2068 18.6359 13.3123 18.5269 12.4297C18.4974 12.2155 18.5277 11.9976 18.6147 11.7985C18.7017 11.5994 18.8423 11.4262 19.0219 11.2967C19.2016 11.1673 19.4138 11.0863 19.6367 11.0621C19.8597 11.0378 20.0853 11.0713 20.2903 11.1589C20.4953 11.2455 20.6729 11.3828 20.8048 11.5569C20.9367 11.7311 21.0183 11.9358 21.0413 12.1502C21.2246 13.6584 20.9159 15.1841 20.1579 16.5156C19.3999 17.8471 18.2302 18.9184 16.8113 19.5807C15.3923 20.243 13.7944 20.4636 12.2394 20.2117C10.6844 19.9598 9.24938 19.248 8.13352 18.1751C7.01766 17.1022 6.27632 15.7214 6.0124 14.2244C5.74848 12.7274 5.97506 11.1883 6.66071 9.82092C7.34635 8.45351 8.45704 7.32556 9.83862 6.59361C11.2202 5.86167 12.8041 5.56204 14.3706 5.73632C14.5383 5.7513 14.7012 5.79838 14.8498 5.87479C14.9984 5.9512 15.1297 6.05541 15.2359 6.1813C15.3421 6.30719 15.4212 6.45224 15.4684 6.60793C15.5157 6.76363 15.5302 6.92685 15.5111 7.08801C15.492 7.24918 15.4397 7.40505 15.3572 7.54649C15.2748 7.68794 15.1638 7.81211 15.0309 7.91172C14.8979 8.01134 14.7457 8.08439 14.583 8.12661C14.4204 8.16882 14.2506 8.17935 14.0837 8.15757C13.3744 8.07826 12.6556 8.14435 11.9747 8.35151C11.2938 8.55867 10.6661 8.9022 10.1328 9.35954C9.59958 9.81688 9.17283 10.3777 8.88061 11.0051C8.58839 11.6326 8.43733 12.3124 8.43733 13.0001Z" fill="#213F95"/>
</svg>
