<svg width="27" height="27" viewBox="0 0 27 27" fill="none" xmlns="http://www.w3.org/2000/svg">
<path d="M7.875 13.5L11.25 16.875L19.125 9M22.5 16.875C21.375 18 23.9062 21.0938 22.5 22.5C21.0937 23.9062 18 21.375 16.875 22.5C15.75 23.625 15.1875 25.875 13.5 25.875C11.8125 25.875 11.25 23.625 10.125 22.5C9 21.375 5.90625 23.9062 4.5 22.5C3.09375 21.0938 5.625 18 4.5 16.875C3.375 15.75 1.125 15.1875 1.125 13.5C1.125 11.8125 3.375 11.25 4.5 10.125C5.625 9 3.09375 5.90625 4.5 4.5C5.90625 3.09375 9 5.625 10.125 4.5C11.25 3.375 11.8125 1.125 13.5 1.125C15.1875 1.125 15.75 3.375 16.875 4.5C18 5.625 21.0937 3.09375 22.5 4.5C23.9062 5.90625 21.375 9 22.5 10.125C23.625 11.25 25.875 11.8125 25.875 13.5C25.875 15.1875 23.625 15.75 22.5 16.875Z" stroke="#213F95" stroke-width="2"/>
</svg>
