<svg width="27" height="27" viewBox="0 0 27 27" fill="none" xmlns="http://www.w3.org/2000/svg">
<path d="M3.70766 23.1772L10.8672 16.0177M19.8829 12.834L17.7398 19.2645C17.7054 19.3673 17.6468 19.4604 17.5689 19.5358C17.4909 19.6112 17.396 19.6667 17.292 19.6976L4.15428 23.6036C4.03592 23.6388 3.91019 23.6408 3.79076 23.6094C3.67134 23.5781 3.5628 23.5146 3.47695 23.4258C3.39111 23.3371 3.33125 23.2265 3.30389 23.1061C3.27653 22.9857 3.28272 22.8601 3.32178 22.743L7.58778 9.94722C7.61836 9.85535 7.66834 9.77113 7.73434 9.70028C7.80034 9.62943 7.88081 9.5736 7.97028 9.5366L14.0307 7.04135C14.1539 6.99046 14.2894 6.9772 14.4201 7.00323C14.5509 7.02925 14.671 7.09341 14.7653 7.1876L19.7198 12.1432C19.8084 12.2319 19.8707 12.3434 19.8995 12.4654C19.9283 12.5874 19.9225 12.715 19.8829 12.834Z" stroke="#213F95" stroke-width="1.5" stroke-linecap="round" stroke-linejoin="round"/>
<path d="M20.703 3.57982L23.3625 6.23932C23.5623 6.43052 23.722 6.65972 23.8321 6.91347C23.9421 7.16721 24.0004 7.44038 24.0035 7.71695C24.0065 7.99352 23.9543 8.26792 23.8499 8.52403C23.7454 8.78015 23.5909 9.01282 23.3953 9.2084C23.1997 9.40397 22.9671 9.55851 22.7109 9.66294C22.4548 9.76737 22.1804 9.81959 21.9039 9.81654C21.6273 9.81348 21.3541 9.7552 21.1004 9.64514C20.8466 9.53507 20.6174 9.37542 20.4262 9.17557L17.7656 6.51607C17.3903 6.12383 17.1836 5.60025 17.1896 5.05745C17.1956 4.51465 17.4139 3.99577 17.7977 3.61193C18.1816 3.22809 18.7004 3.00979 19.2432 3.00379C19.786 2.99779 20.3107 3.20456 20.703 3.57982Z" fill="#213F95" stroke="#213F95" stroke-width="1.5" stroke-linecap="round" stroke-linejoin="round"/>
<path d="M13.2529 13.6307C13.0972 13.4695 12.911 13.3409 12.7051 13.2525C12.4992 13.164 12.2778 13.1175 12.0537 13.1155C11.8297 13.1136 11.6075 13.1563 11.4001 13.2411C11.1927 13.326 11.0043 13.4513 10.8458 13.6097C10.6874 13.7682 10.5621 13.9566 10.4772 14.164C10.3924 14.3714 10.3497 14.5936 10.3516 14.8176C10.3536 15.0417 10.4001 15.2631 10.4886 15.469C10.577 15.6749 10.7056 15.8611 10.8667 16.0168C11.185 16.3242 11.6113 16.4943 12.0537 16.4904C12.4962 16.4866 12.9194 16.3091 13.2323 15.9962C13.5452 15.6833 13.7227 15.2601 13.7265 14.8176C13.7303 14.3752 13.5603 13.9489 13.2529 13.6307Z" stroke="#213F95" stroke-width="1.5" stroke-linecap="round" stroke-linejoin="round"/>
</svg>
