<svg width="27" height="27" viewBox="0 0 27 27" fill="none" xmlns="http://www.w3.org/2000/svg">
<path d="M10.7076 24.75C10.1564 22.9526 9.32481 21.6126 8.21294 20.7298C6.54512 19.4063 3.89519 20.2292 2.91644 18.8634C1.93769 17.4977 3.60212 14.9867 4.186 13.5051C4.76987 12.0234 1.94725 11.4997 2.27687 11.079C2.49625 10.7985 3.92294 9.98925 6.55694 8.65125C7.30506 4.38375 10.069 2.25 14.8487 2.25C22.0184 2.25 24.7499 8.32838 24.7499 12.195C24.7499 16.0605 21.4424 20.2253 16.7309 21.1236C16.3097 21.7371 16.9173 22.9459 18.5534 24.75" stroke="#213F95" stroke-width="2.3335" stroke-linecap="round" stroke-linejoin="round"/>
<path fill-rule="evenodd" clip-rule="evenodd" d="M10.9686 8.15624C10.6007 9.58162 10.71 10.5827 11.2965 11.1594C11.8826 11.7358 12.8816 12.1127 14.2935 12.2901C13.9729 14.1287 14.3634 14.9912 15.4652 14.8776C16.5666 14.7643 17.2284 14.3068 17.4508 13.5051C19.1721 13.9888 20.1051 13.5838 20.2498 12.2901C20.4664 10.3494 19.4201 8.80199 18.9909 8.80199C18.5617 8.80199 17.4508 8.74968 17.4508 8.15624C17.4508 7.5628 16.1526 7.22812 14.9809 7.22812C13.8092 7.22812 14.514 6.4378 12.9052 6.74999C11.8327 6.95812 11.1872 7.42687 10.9686 8.15624Z" fill="#213F95" stroke="#213F95" stroke-width="2" stroke-linejoin="round"/>
<path d="M17.1562 14.3438C16.5841 14.6987 15.7994 15.2888 15.4687 15.75C14.6424 16.9031 13.9724 17.6051 13.8262 18.342" stroke="#213F95" stroke-width="2" stroke-linecap="round"/>
</svg>
