<svg width="37" height="32" viewBox="0 0 37 32" fill="none" xmlns="http://www.w3.org/2000/svg">
<mask id="mask0_43_88" style="mask-type:luminance" maskUnits="userSpaceOnUse" x="0" y="0" width="37" height="32">
<path d="M0 0H36.1955V31.36H0V0Z" fill="white"/>
</mask>
<g mask="url(#mask0_43_88)">
<mask id="mask1_43_88" style="mask-type:luminance" maskUnits="userSpaceOnUse" x="0" y="0" width="37" height="32">
<path d="M6.03193 0H30.1636C31.7619 0 33.2974 0.495495 34.4283 1.37638C35.5593 2.25726 36.1955 3.45317 36.1955 4.69803V26.6161C36.1955 27.8609 35.5593 29.0568 34.4283 29.9377C33.2974 30.8186 31.7619 31.3141 30.1636 31.3141H6.03193C4.43363 31.3141 2.89815 30.8186 1.76717 29.9377C0.63618 29.0568 0 27.8609 0 26.6161V4.69803C0 3.45317 0.63618 2.25726 1.76717 1.37638C2.89815 0.495495 4.43363 0 6.03193 0Z" fill="white"/>
</mask>
<g mask="url(#mask1_43_88)">
<path d="M0 0H36.1955V31.2743H0V0Z" fill="#E8E8E8"/>
</g>
</g>
<path d="M36.9558 14.6406C36.9558 14.6406 36.6334 14.662 35.9885 14.7018C35.351 14.7354 34.5669 14.7109 33.6289 14.6284C32.6909 14.5397 31.7529 14.3347 30.815 14.0166C29.877 13.6985 29.0892 13.1969 28.4553 12.5118C27.8178 11.8205 27.4881 10.8693 27.4587 9.66117C27.4294 8.75582 27.62 8.0034 28.0303 7.39779C28.4407 6.79525 28.9573 6.30281 29.5839 5.91742L29.364 5.52592C27.9754 5.72167 26.8579 6.23552 26.0078 7.06746C25.1578 7.89329 24.7034 8.82616 24.6448 9.86915C24.5862 10.7745 24.806 11.6737 25.3043 12.5607C25.8026 13.4508 26.5574 14.1849 27.576 14.7629C28.6019 15.3441 29.8367 15.656 31.2839 15.705V16.4146C30.1188 16.4391 29.0269 16.6348 28.001 17.0018C26.9824 17.3689 26.1544 17.8919 25.5095 18.5678C24.872 19.2469 24.5422 20.0819 24.5129 21.0759C24.5129 21.9079 24.7071 22.7276 25.0991 23.535C25.4985 24.3425 26.0701 25.046 26.8139 25.6394C27.554 26.2266 28.4187 26.6151 29.408 26.8016L29.6278 26.4101C29.0013 26.037 28.4847 25.5476 28.0743 24.942C27.6639 24.3394 27.4587 23.584 27.4587 22.6786C27.4294 21.5867 27.6676 20.715 28.1769 20.0604C28.6825 19.409 29.342 18.9104 30.1554 18.5678C30.9652 18.2253 31.8152 17.9898 32.7056 17.8582C33.6032 17.7298 34.435 17.6594 35.1971 17.6503C35.9665 17.635 36.5674 17.6258 36.9998 17.6258L36.9558 27.7315H21.4498C19.5152 27.7315 17.9507 27.4011 16.7599 26.7405C15.5655 26.0737 14.7264 25.2295 14.2391 24.2079C13.7591 23.1894 13.6309 22.1281 13.858 21.027C14.0815 19.9259 14.6531 18.9288 15.5728 18.0295C16.4998 17.1242 17.7602 16.4696 19.354 16.0598C17.7895 15.6622 16.5877 15.0168 15.7487 14.1267C14.9169 13.2397 14.4296 12.2549 14.2831 11.1782C14.1438 10.0955 14.316 9.05556 14.796 8.05845C15.2723 7.0644 16.0748 6.24164 17.1996 5.58709C18.3208 4.93561 19.7387 4.60834 21.4498 4.60834H36.9998L36.9558 14.6406Z" fill="#000506"/>
</svg>
