<svg width="46" height="32" viewBox="0 0 46 32" fill="none" xmlns="http://www.w3.org/2000/svg">
<mask id="mask0_98_1027" style="mask-type:luminance" maskUnits="userSpaceOnUse" x="0" y="0" width="45" height="32">
<path d="M0 0H45V31.36H0V0Z" fill="white"/>
</mask>
<g mask="url(#mask0_98_1027)">
<mask id="mask1_98_1027" style="mask-type:luminance" maskUnits="userSpaceOnUse" x="0" y="0" width="45" height="32">
<path d="M7.49919 0H37.5008C39.4879 0 41.3969 0.495495 42.803 1.37638C44.2091 2.25726 45 3.45317 45 4.69803V26.6161C45 27.8609 44.2091 29.0568 42.803 29.9377C41.3969 30.8186 39.4879 31.3141 37.5008 31.3141H7.49919C5.5121 31.3141 3.60312 30.8186 2.19703 29.9377C0.790929 29.0568 0 27.8609 0 26.6161V4.69803C0 3.45317 0.790929 2.25726 2.19703 1.37638C3.60312 0.495495 5.5121 0 7.49919 0Z" fill="white"/>
</mask>
<g mask="url(#mask1_98_1027)">
<path d="M0 0H45V31.2743H0V0Z" fill="#000506"/>
</g>
</g>
<path d="M45.9455 14.6406C45.9455 14.6406 45.5447 14.662 44.7429 14.7018C43.9503 14.7354 42.9755 14.7109 41.8094 14.6284C40.6432 14.5397 39.4771 14.3347 38.3109 14.0166C37.1448 13.6985 36.1654 13.1969 35.3774 12.5118C34.5847 11.8205 34.1748 10.8693 34.1383 9.66117C34.1019 8.75582 34.3388 8.0034 34.849 7.39779C35.3591 6.79525 36.0014 6.30281 36.7804 5.91742L36.5071 5.52592C34.7806 5.72167 33.3913 6.23552 32.3345 7.06746C31.2776 7.89329 30.7128 8.82616 30.6399 9.86915C30.567 10.7745 30.8403 11.6737 31.4599 12.5607C32.0794 13.4508 33.0177 14.1849 34.2841 14.7629C35.5596 15.3441 37.0947 15.656 38.894 15.705V16.4146C37.4454 16.4391 36.088 16.6348 34.8125 17.0018C33.5462 17.3689 32.5167 17.8919 31.7149 18.5678C30.9223 19.2469 30.5124 20.0819 30.4759 21.0759C30.4759 21.9079 30.7174 22.7276 31.2048 23.535C31.7013 24.3425 32.4119 25.046 33.3366 25.6394C34.2568 26.2266 35.3318 26.6151 36.5617 26.8016L36.835 26.4101C36.0561 26.037 35.4138 25.5476 34.9036 24.942C34.3934 24.3394 34.1383 23.584 34.1383 22.6786C34.1019 21.5867 34.398 20.715 35.0312 20.0604C35.6598 19.409 36.4797 18.9104 37.491 18.5678C38.4977 18.2253 39.5545 17.9898 40.6614 17.8582C41.7775 17.7298 42.8115 17.6594 43.759 17.6503C44.7156 17.635 45.4627 17.6258 46.0002 17.6258L45.9455 27.7315H26.6677C24.2626 27.7315 22.3175 27.4011 20.837 26.7405C19.352 26.0737 18.3089 25.2295 17.703 24.2079C17.1063 23.1894 16.9469 22.1281 17.2293 21.027C17.5072 19.9259 18.2178 18.9288 19.3611 18.0295C20.5136 17.1242 22.0806 16.4696 24.0621 16.0598C22.1171 15.6622 20.6229 15.0168 19.5798 14.1267C18.5458 13.2397 17.9399 12.2549 17.7577 11.1782C17.5846 10.0955 17.7987 9.05556 18.3954 8.05845C18.9876 7.0644 19.9852 6.24164 21.3837 5.58709C22.7776 4.93561 24.5404 4.60834 26.6677 4.60834H46.0002L45.9455 14.6406Z" fill="#E8E8E8"/>
</svg>
